<svg id="Group_1146" data-name="Group 1146" xmlns="http://www.w3.org/2000/svg" xmlns:xlink="http://www.w3.org/1999/xlink" width="92.574" height="97.831" viewBox="0 0 92.574 97.831">
  <defs>
    <clipPath id="clip-path">
      <rect id="Rectangle_1866" data-name="Rectangle 1866" width="92.574" height="97.831" fill="#e42313"/>
    </clipPath>
  </defs>
  <g id="Group_1129" data-name="Group 1129" clip-path="url(#clip-path)">
    <path id="Path_631" data-name="Path 631" d="M91.8,69.727c-1.124-1.141-2.264-2.265-3.393-3.4-.541-.544-1.073-1.1-1.627-1.665a6.118,6.118,0,0,0-.87-11.058A39.3,39.3,0,0,0,88.3,43.664c1.213-12.788-2.7-23.8-12-32.614C65.361.675,52.075-1.986,37.8,1.366,22.958,4.851,13.552,14.573,9.29,29.2c-1.322,4.535-1.3,9.225-1.262,13.9a3.141,3.141,0,0,1-.471,1.625C5.4,48.113,3.175,51.459,1,54.838a5.29,5.29,0,0,0,2.315,8.03c1.384.66,2.774,1.312,4.182,1.917a1.35,1.35,0,0,1,.894,1.138c.522,3.123,1.194,6.225,1.592,9.362,1.021,8.037,7.068,12.093,13.751,11.763,2.608-.129,5.228-.028,7.843-.018A2.622,2.622,0,0,1,34.54,89.4c.473,2.2.918,4.409,1.379,6.612.275,1.312.81,1.81,2.031,1.811q17.992.009,35.984,0A1.745,1.745,0,0,0,75.788,95.5c-.317-1.567-.616-3.139-.986-4.694a1.512,1.512,0,0,1,.462-1.643c1.6-1.537,3.168-3.117,4.721-4.707a1.736,1.736,0,0,0-.531-3.023c-.494-.252-1.008-.467-1.487-.746A2.524,2.524,0,0,1,76.7,77.947a2.62,2.62,0,0,1,2.027-2.032,2.545,2.545,0,0,1,2.762,1.223c.265.448.475.929.706,1.4.736,1.491,1.965,1.738,3.129.588q3.278-3.239,6.517-6.516c.989-1,.969-1.855-.04-2.88M48.048,31.612a6.091,6.091,0,0,0-5.777,7.336H36.689c-.017-.346-.048-.689-.048-1.033,0-2.255.011-4.509-.007-6.764-.014-1.771-1.054-2.483-2.711-1.893-.614.219-1.225.454-1.853.627a2.5,2.5,0,0,1-2.752-1.006,2.583,2.583,0,0,1-.041-2.946A2.476,2.476,0,0,1,32,24.865c.693.179,1.367.433,2.045.663,1.513.514,2.561-.174,2.583-1.767.032-2.254.009-4.509.009-6.764V15.813h5.58c-.055,4.709,2.419,7.5,6.417,7.319a6.11,6.11,0,0,0,5.548-7.289h5.644v1.732c0,2.058-.017,4.117.006,6.176.018,1.593,1.056,2.294,2.569,1.784.679-.229,1.352-.487,2.044-.667a2.483,2.483,0,0,1,2.731,1.054,2.578,2.578,0,0,1-.029,2.946A2.5,2.5,0,0,1,64.4,29.889c-.659-.181-1.3-.433-1.946-.658-1.546-.539-2.606.177-2.621,1.811-.02,2.254-.005,4.509-.005,6.764v1.126H54.216a6.087,6.087,0,0,0-6.168-7.319M84.292,75.025a5.949,5.949,0,0,0-5.8-2.5,5.661,5.661,0,0,0-3.808,1.994c-2.351,2.742-1.887,6.151,1.152,8.976l-3.978,3.983-4.683-4.712c-.253-.255-.5-.512-.763-.761-1.194-1.151-2.416-.942-3.136.533-.3.615-.574,1.246-.915,1.838A2.515,2.515,0,0,1,59.7,85.613a2.6,2.6,0,0,1-2.133-2.146,2.48,2.48,0,0,1,1.266-2.642c.564-.324,1.168-.579,1.756-.861,1.559-.749,1.794-1.956.588-3.182-1.6-1.629-3.23-3.236-4.845-4.855-.226-.226-.437-.466-.618-.66L59.7,67.334A5.958,5.958,0,0,0,65.126,69.9a5.789,5.789,0,0,0,4.262-2.113c2.288-2.728,1.782-6.256-1.252-8.919l4.035-4.06c.735.779,1.5,1.616,2.293,2.426,1.1,1.119,2.191,2.245,3.334,3.317a1.682,1.682,0,0,0,2.835-.507c.333-.635.6-1.3.951-1.929a2.47,2.47,0,0,1,2.693-1.337,2.588,2.588,0,0,1,2.173,2.1,2.542,2.542,0,0,1-1.335,2.7c-.6.335-1.228.605-1.84.911a1.726,1.726,0,0,0-.522,3.017c1.619,1.66,3.274,3.285,4.912,4.927.226.227.438.468.615.659l-3.988,3.926" transform="translate(0 0)" fill="#e42313"/>
  </g>
</svg>
