<svg id="Group_1147" data-name="Group 1147" xmlns="http://www.w3.org/2000/svg" xmlns:xlink="http://www.w3.org/1999/xlink" width="111.097" height="97.699" viewBox="0 0 111.097 97.699">
  <defs>
    <clipPath id="clip-path">
      <rect id="Rectangle_1862" data-name="Rectangle 1862" width="35.184" height="40.766" fill="#e42313"/>
    </clipPath>
    <clipPath id="clip-path-2">
      <rect id="Rectangle_1863" data-name="Rectangle 1863" width="111.097" height="51.306" fill="#e42313"/>
    </clipPath>
  </defs>
  <g id="Group_1137" data-name="Group 1137" transform="translate(37.957)">
    <g id="Group_1118" data-name="Group 1118" clip-path="url(#clip-path)">
      <path id="Path_606" data-name="Path 606" d="M35.176,10.878a53.9,53.9,0,0,1-.43,8.141,28.884,28.884,0,0,1-5.785,14.5,20.576,20.576,0,0,1-10.593,7.137,2.781,2.781,0,0,1-1.588-.011,20.813,20.813,0,0,1-11.091-7.81A27.837,27.837,0,0,1,.866,21.567,45.7,45.7,0,0,1,0,12.405C0,10.045,0,7.685,0,5.324,0,4.375.3,4.115,1.248,4.166A30.46,30.46,0,0,0,11.976,3.013,13.026,13.026,0,0,0,16.965.3a.786.786,0,0,1,1.176-.06,15.554,15.554,0,0,0,7.9,3.47,32.3,32.3,0,0,0,7.93.458c.917-.058,1.207.216,1.208,1.149,0,1.7,0,3.41,0,5.563M14.7,23.3v.51c0,1.442,0,2.885,0,4.327,0,.709.3,1.008,1.014,1.01q1.86.006,3.72,0c.742,0,1.035-.294,1.037-1.032q0-2.164,0-4.327V23.3c1.65,0,3.238,0,4.827,0,.721,0,1.024-.292,1.027-1q.008-1.879,0-3.759c0-.7-.31-1.007-1.021-1.009-1.444,0-2.889,0-4.333,0h-.5V17q0-2.142,0-4.283c0-.739-.292-1.03-1.037-1.033q-1.86-.006-3.72,0c-.716,0-1.013.3-1.015,1.011,0,1.442,0,2.885,0,4.327v.5h-.522c-1.444,0-2.889,0-4.333,0-.683,0-.995.309-1,.987q-.009,1.9,0,3.8c0,.676.314.973,1,.975,1.24,0,2.48,0,3.721,0H14.7" transform="translate(0 0)" fill="#e42313"/>
    </g>
  </g>
  <g id="Group_1138" data-name="Group 1138" transform="translate(0 46.394)">
    <g id="Group_1123" data-name="Group 1123" clip-path="url(#clip-path-2)">
      <path id="Path_607" data-name="Path 607" d="M72.736,49.18c-.386,1.732-1.512,2.134-3.1,2.126q-14.089-.071-28.178,0c-1.585.008-2.71-.395-3.087-2.126H30.9c-3.659,0-7.319-.009-10.979,0-1.281,0-2.309-.29-2.777-1.679-.083-.245-.7-.436-1.072-.439-4.391-.03-8.783-.017-13.174-.021-2.146,0-2.854-.7-2.859-2.842-.008-3.212.1-6.428-.028-9.635-.166-4.206,1.276-7.3,5.618-8.746a7.551,7.551,0,0,1-2.269-6.847,7.147,7.147,0,0,1,2.682-4.507,7.513,7.513,0,0,1,10,.6c2.9,2.95,2.858,7.03-.153,10.7l2.768,1.4a8.945,8.945,0,0,1,5.605-3.51c-3.763-4.984-3.786-9.478-.109-12.865a8.542,8.542,0,0,1,11.543,0c3.675,3.363,3.656,7.837-.045,12.8l3.23,1.23C40.6,20,44.073,17.4,49.255,17.065,45,11.553,44.936,6.348,49.012,2.568a9.617,9.617,0,0,1,13.078,0c4.083,3.767,4.017,9.018-.181,14.422,6.379,1.372,8.068,2.647,10.319,7.816l3.229-1.216c-3.707-4.945-3.728-9.414-.052-12.8a8.547,8.547,0,0,1,11.543,0c3.677,3.374,3.657,7.858.14,12.544l5.8,3.6,2.344-1.158A7.661,7.661,0,0,1,93,19.254a7.3,7.3,0,0,1,2.7-4.762,7.512,7.512,0,0,1,9.913.459c2.334,2.242,3.583,6.806-.032,10.827.254.123.482.248.719.346a7,7,0,0,1,4.735,6.618c.106,3.981.055,7.968.023,11.952-.012,1.568-.86,2.34-2.486,2.346q-6.648.025-13.3,0c-.719,0-1.243,0-1.547.9-.38,1.122-1.475,1.244-2.546,1.242q-7.441-.015-14.882,0H72.736m-4.459-2.21c.032-.4.084-.754.084-1.107,0-5.892.023-11.785,0-17.677-.018-4.142-2.663-6.745-6.813-6.758-3.9-.012-7.8-.005-11.7,0-4.547,0-7.089,2.541-7.093,7.092q-.008,8.533,0,17.067v1.384Zm-29.8-2.118c0-4.263.013-8.4,0-12.537a4.252,4.252,0,0,0-4.516-4.5q-4.021-.021-8.041,0A4.25,4.25,0,0,0,21.4,32.313c-.016,3.9-.005,7.8,0,11.7,0,.27.047.54.075.845Zm34.176-.043H89.7c0-4.425.062-8.767-.027-13.105a4.073,4.073,0,0,0-4-3.867q-4.506-.1-9.015,0a4.077,4.077,0,0,0-3.992,3.871c-.085,4.338-.026,8.679-.026,13.1M17.091,42.687c0-3.415.054-6.7-.024-9.985a2.723,2.723,0,0,0-2.753-2.709c-2.395-.055-4.792-.05-7.187,0a2.7,2.7,0,0,0-2.75,2.449c-.1,3.394-.033,6.794-.033,10.246Zm89.709,0c0-3.272.014-6.4-.005-9.519a2.949,2.949,0,0,0-3.182-3.195c-2.111-.024-4.223-.019-6.335,0S94.026,31.083,94,33.19c-.034,2.842-.012,5.684-.005,8.527,0,.309.059.618.095.97ZM55.591,4.352A5.317,5.317,0,1,0,60.9,9.734a5.317,5.317,0,0,0-5.312-5.382M29.9,12.892a4.214,4.214,0,0,0-4.229,4.275,4.257,4.257,0,1,0,8.515-.056,4.213,4.213,0,0,0-4.285-4.22M76.92,17.108a4.258,4.258,0,1,0,8.515.065,4.258,4.258,0,0,0-8.515-.065M13.888,20.316a3.185,3.185,0,0,0-3.169-3.188A3.268,3.268,0,0,0,7.5,20.3a3.2,3.2,0,0,0,3.26,3.223,3.135,3.135,0,0,0,3.124-3.207m86.465,3.207a3.205,3.205,0,0,0,3.251-3.11,3.265,3.265,0,0,0-3.226-3.284,3.187,3.187,0,0,0-3.16,3.2,3.134,3.134,0,0,0,3.134,3.2" transform="translate(0 -0.001)" fill="#e42313"/>
      <path id="Path_608" data-name="Path 608" d="M200.74,113.357H175.208v-1.384q0-8.533,0-17.067c0-4.55,2.546-7.088,7.093-7.092,3.9,0,7.8-.01,11.7,0,4.15.013,6.795,2.616,6.813,6.758.026,5.892.008,11.785,0,17.677,0,.353-.052.705-.084,1.107" transform="translate(-132.463 -66.387)" fill="#e42313"/>
      <path id="Path_609" data-name="Path 609" d="M200.74,113.357H175.208v-1.384q0-8.533,0-17.067c0-4.55,2.546-7.088,7.093-7.092,3.9,0,7.8-.01,11.7,0,4.15.013,6.795,2.616,6.813,6.758.026,5.892.008,11.785,0,17.677C200.824,112.6,200.772,112.956,200.74,113.357Z" transform="translate(-132.463 -66.387)" fill="#e42313" stroke="#e42313" stroke-width="1"/>
      <path id="Path_610" data-name="Path 610" d="M104.753,131.026h-17c-.028-.3-.075-.575-.075-.845,0-3.9-.015-7.8,0-11.7a4.249,4.249,0,0,1,4.516-4.495q4.021-.021,8.041,0a4.253,4.253,0,0,1,4.516,4.5c.017,4.137,0,8.274,0,12.537" transform="translate(-66.28 -86.174)" fill="#e42313"/>
      <path id="Path_611" data-name="Path 611" d="M104.753,131.026h-17c-.028-.3-.075-.575-.075-.845,0-3.9-.015-7.8,0-11.7a4.249,4.249,0,0,1,4.516-4.495q4.021-.021,8.041,0a4.253,4.253,0,0,1,4.516,4.5C104.765,122.626,104.753,126.763,104.753,131.026Z" transform="translate(-66.28 -86.174)" fill="#e42313" stroke="#e42313" stroke-width="1"/>
      <path id="Path_612" data-name="Path 612" d="M297.726,130.923c0-4.422-.059-8.763.026-13.1a4.077,4.077,0,0,1,3.992-3.871q4.506-.1,9.015,0a4.073,4.073,0,0,1,4,3.867c.09,4.338.027,8.68.027,13.105Z" transform="translate(-225.076 -86.114)" fill="#e42313"/>
      <path id="Path_613" data-name="Path 613" d="M297.726,130.923c0-4.422-.059-8.763.026-13.1a4.077,4.077,0,0,1,3.992-3.871q4.506-.1,9.015,0a4.073,4.073,0,0,1,4,3.867c.09,4.338.027,8.68.027,13.105Z" transform="translate(-225.076 -86.114)" fill="#e42313" stroke="#e42313" stroke-width="1"/>
      <path id="Path_614" data-name="Path 614" d="M30.485,135.51H17.738c0-3.452-.068-6.852.033-10.246a2.7,2.7,0,0,1,2.75-2.449c2.395-.048,4.792-.054,7.187,0a2.723,2.723,0,0,1,2.753,2.709c.078,3.283.024,6.57.024,9.985" transform="translate(-13.394 -92.824)" fill="#e42313"/>
      <path id="Path_615" data-name="Path 615" d="M30.485,135.51H17.738c0-3.452-.068-6.852.033-10.246a2.7,2.7,0,0,1,2.75-2.449c2.395-.048,4.792-.054,7.187,0a2.723,2.723,0,0,1,2.753,2.709C30.539,128.809,30.485,132.1,30.485,135.51Z" transform="translate(-13.394 -92.824)" fill="#e42313" stroke="#e42313" stroke-width="1"/>
      <path id="Path_616" data-name="Path 616" d="M398.052,135.52h-12.71c-.036-.352-.094-.661-.094-.97-.007-2.842-.029-5.685.005-8.527.025-2.107,1.161-3.2,3.277-3.219s4.224-.022,6.335,0A2.949,2.949,0,0,1,398.048,126c.019,3.123,0,6.247,0,9.519" transform="translate(-291.252 -92.834)" fill="#e42313"/>
      <path id="Path_617" data-name="Path 617" d="M398.052,135.52h-12.71c-.036-.352-.094-.661-.094-.97-.007-2.842-.029-5.685.005-8.527.025-2.107,1.161-3.2,3.277-3.219s4.224-.022,6.335,0A2.949,2.949,0,0,1,398.048,126C398.066,129.125,398.052,132.248,398.052,135.52Z" transform="translate(-291.252 -92.834)" fill="#e42313" stroke="#e42313" stroke-width="1"/>
      <path id="Path_618" data-name="Path 618" d="M211.181,17.837a5.317,5.317,0,1,1-5.384,5.307,5.319,5.319,0,0,1,5.384-5.307" transform="translate(-155.59 -13.485)" fill="#e42313"/>
      <path id="Path_619" data-name="Path 619" d="M211.181,17.837a5.317,5.317,0,1,1-5.384,5.307A5.319,5.319,0,0,1,211.181,17.837Z" transform="translate(-155.59 -13.485)" fill="#e42313" stroke="#e42313" stroke-width="1"/>
      <path id="Path_620" data-name="Path 620" d="M109.464,52.843a4.213,4.213,0,0,1,4.285,4.22,4.258,4.258,0,1,1-8.515.056,4.215,4.215,0,0,1,4.23-4.275" transform="translate(-79.561 -39.951)" fill="#e42313"/>
      <path id="Path_621" data-name="Path 621" d="M109.464,52.843a4.213,4.213,0,0,1,4.285,4.22,4.258,4.258,0,1,1-8.515.056A4.215,4.215,0,0,1,109.464,52.843Z" transform="translate(-79.561 -39.951)" fill="#e42313" stroke="#e42313" stroke-width="1"/>
      <path id="Path_622" data-name="Path 622" d="M315.293,57.058a4.257,4.257,0,0,1,8.515.065,4.257,4.257,0,1,1-8.515-.065" transform="translate(-238.373 -39.952)" fill="#e42313"/>
      <path id="Path_623" data-name="Path 623" d="M315.293,57.058a4.257,4.257,0,0,1,8.515.065,4.257,4.257,0,1,1-8.515-.065Z" transform="translate(-238.373 -39.952)" fill="#e42313" stroke="#e42313" stroke-width="1"/>
      <path id="Path_624" data-name="Path 624" d="M37.144,73.394A3.135,3.135,0,0,1,34.02,76.6a3.2,3.2,0,0,1-3.26-3.223,3.268,3.268,0,0,1,3.215-3.172,3.185,3.185,0,0,1,3.169,3.188" transform="translate(-23.256 -53.078)" fill="#e42313"/>
      <path id="Path_625" data-name="Path 625" d="M37.144,73.394A3.135,3.135,0,0,1,34.02,76.6a3.2,3.2,0,0,1-3.26-3.223,3.268,3.268,0,0,1,3.215-3.172A3.185,3.185,0,0,1,37.144,73.394Z" transform="translate(-23.256 -53.078)" fill="#e42313" stroke="#e42313" stroke-width="1"/>
      <path id="Path_626" data-name="Path 626" d="M401.632,76.6a3.134,3.134,0,0,1-3.134-3.2,3.187,3.187,0,0,1,3.16-3.2,3.265,3.265,0,0,1,3.226,3.284,3.205,3.205,0,0,1-3.251,3.11" transform="translate(-301.279 -53.078)" fill="#e42313"/>
      <path id="Path_627" data-name="Path 627" d="M401.632,76.6a3.134,3.134,0,0,1-3.134-3.2,3.187,3.187,0,0,1,3.16-3.2,3.265,3.265,0,0,1,3.226,3.284A3.205,3.205,0,0,1,401.632,76.6Z" transform="translate(-301.279 -53.078)" fill="#e42313" stroke="#e42313" stroke-width="1"/>
    </g>
  </g>
</svg>
