<svg id="Group_1139" data-name="Group 1139" xmlns="http://www.w3.org/2000/svg" xmlns:xlink="http://www.w3.org/1999/xlink" width="97.415" height="97.415" viewBox="0 0 97.415 97.415">
  <defs>
    <clipPath id="clip-path">
      <rect id="Rectangle_1864" data-name="Rectangle 1864" width="97.415" height="97.415" fill="#e42313"/>
    </clipPath>
  </defs>
  <g id="Group_1125" data-name="Group 1125" clip-path="url(#clip-path)">
    <path id="Path_628" data-name="Path 628" d="M97.415,48.7A48.707,48.707,0,1,1,48.751,0,48.761,48.761,0,0,1,97.415,48.7M43.688,50.75c-.35-.371-.662-.7-.968-1.028q-2.673-2.886-5.344-5.775a6.086,6.086,0,0,0-5.49-2.1A6,6,0,0,0,26.675,46a6.166,6.166,0,0,0,1.5,6.59q5.5,5.876,11.033,11.728a6.753,6.753,0,0,0,1.567,1.239,6.172,6.172,0,0,0,7.733-1.38q6.512-6.938,12.979-13.917,3.867-4.15,7.735-8.3a6.207,6.207,0,0,0,1.729-5.8A6.1,6.1,0,0,0,66.4,31.376a5.914,5.914,0,0,0-6.27,1.727c-3.33,3.524-6.615,7.091-9.919,10.641L43.688,50.75" transform="translate(0 0)" fill="#e42313"/>
  </g>
</svg>
