<svg id="Group_1136" data-name="Group 1136" xmlns="http://www.w3.org/2000/svg" xmlns:xlink="http://www.w3.org/1999/xlink" width="85.016" height="98.504" viewBox="0 0 85.016 98.504">
  <defs>
    <clipPath id="clip-path">
      <rect id="Rectangle_1862" data-name="Rectangle 1862" width="85.016" height="98.504" fill="#e42313"/>
    </clipPath>
  </defs>
  <g id="Group_1118" data-name="Group 1118" clip-path="url(#clip-path)">
    <path id="Path_606" data-name="Path 606" d="M85,26.284a130.23,130.23,0,0,1-1.039,19.672c-1.8,12.816-5.752,24.794-13.979,35.036a49.719,49.719,0,0,1-25.6,17.246,6.72,6.72,0,0,1-3.836-.025,50.293,50.293,0,0,1-26.8-18.872C7.664,71.217,4.134,61.976,2.094,52.114A110.416,110.416,0,0,1,.008,29.976c-.015-5.7,0-11.407,0-17.111,0-2.293.712-2.922,3.011-2.8A73.6,73.6,0,0,0,28.938,7.279,31.475,31.475,0,0,0,40.993.718,1.9,1.9,0,0,1,43.836.573c5.441,4.894,12.07,7.094,19.082,8.385a78.04,78.04,0,0,0,19.162,1.107C84.294,9.924,85,10.587,85,12.842c0,4.119,0,8.239,0,13.442M35.518,56.291v1.232c0,3.485-.005,6.97,0,10.456,0,1.714.726,2.435,2.451,2.44q4.5.014,8.99,0c1.794,0,2.5-.71,2.5-2.494q.009-5.228,0-10.456V56.291c3.987,0,7.825,0,11.663,0,1.743,0,2.474-.706,2.481-2.409q.02-4.541,0-9.083c-.007-1.7-.749-2.432-2.468-2.437-3.49-.009-6.98,0-10.471,0H49.468V41.088q0-5.175,0-10.35c0-1.785-.706-2.49-2.5-2.5q-4.495-.015-8.99,0c-1.729.007-2.448.73-2.452,2.444-.007,3.485,0,6.97,0,10.456v1.214H34.257c-3.49,0-6.981-.008-10.471,0-1.651.006-2.4.748-2.412,2.384q-.022,4.594,0,9.188c.009,1.633.758,2.351,2.428,2.355,3,.009,5.993,0,8.99,0h2.726" transform="translate(0 0)" fill="#e42313"/>
  </g>
</svg>
